<mxfile host="app.diagrams.net" modified="2023-07-27T11:29:53.151Z" agent="Mozilla/5.0 (Macintosh; Intel Mac OS X 10.15; rv:109.0) Gecko/20100101 Firefox/115.0" etag="_e6MczkpuZwZBQzzslgU" version="21.6.5" type="github">
  <diagram name="Seite-1" id="9sbnDcirE9n79MtSCScG">
    <mxGraphModel dx="2417" dy="983" grid="1" gridSize="10" guides="1" tooltips="1" connect="1" arrows="1" fold="1" page="1" pageScale="1" pageWidth="827" pageHeight="1169" math="0" shadow="0">
      <root>
        <mxCell id="0" />
        <mxCell id="1" parent="0" />
        <mxCell id="4i83WWW_sYW0korjM1lw-2" value="" style="childLayout=tableLayout;recursiveResize=0;shadow=0;fillColor=none;swimlaneLine=0;rounded=1;" vertex="1" parent="1">
          <mxGeometry x="160" y="210" width="180" height="300" as="geometry" />
        </mxCell>
        <mxCell id="4i83WWW_sYW0korjM1lw-3" value="" style="shape=tableRow;horizontal=0;startSize=0;swimlaneHead=0;swimlaneBody=0;top=0;left=0;bottom=0;right=0;dropTarget=0;collapsible=0;recursiveResize=0;expand=0;fontStyle=0;fillColor=none;strokeColor=inherit;swimlaneLine=0;rounded=1;" vertex="1" parent="4i83WWW_sYW0korjM1lw-2">
          <mxGeometry width="180" height="20" as="geometry" />
        </mxCell>
        <mxCell id="4i83WWW_sYW0korjM1lw-4" value="D13" style="connectable=0;recursiveResize=0;strokeColor=inherit;fillColor=none;align=center;whiteSpace=wrap;html=1;swimlaneLine=0;rounded=1;" vertex="1" parent="4i83WWW_sYW0korjM1lw-3">
          <mxGeometry width="30" height="20" as="geometry">
            <mxRectangle width="30" height="20" as="alternateBounds" />
          </mxGeometry>
        </mxCell>
        <mxCell id="4i83WWW_sYW0korjM1lw-5" value="USB" style="connectable=0;recursiveResize=0;strokeColor=inherit;fillColor=none;align=center;whiteSpace=wrap;html=1;swimlaneLine=0;rounded=1;" vertex="1" parent="4i83WWW_sYW0korjM1lw-3">
          <mxGeometry x="30" width="120" height="20" as="geometry">
            <mxRectangle width="120" height="20" as="alternateBounds" />
          </mxGeometry>
        </mxCell>
        <mxCell id="4i83WWW_sYW0korjM1lw-6" value="D12" style="connectable=0;recursiveResize=0;strokeColor=inherit;fillColor=none;align=center;whiteSpace=wrap;html=1;swimlaneLine=0;rounded=1;" vertex="1" parent="4i83WWW_sYW0korjM1lw-3">
          <mxGeometry x="150" width="30" height="20" as="geometry">
            <mxRectangle width="30" height="20" as="alternateBounds" />
          </mxGeometry>
        </mxCell>
        <mxCell id="4i83WWW_sYW0korjM1lw-7" style="shape=tableRow;horizontal=0;startSize=0;swimlaneHead=0;swimlaneBody=0;top=0;left=0;bottom=0;right=0;dropTarget=0;collapsible=0;recursiveResize=0;expand=0;fontStyle=0;fillColor=none;strokeColor=inherit;swimlaneLine=0;rounded=1;" vertex="1" parent="4i83WWW_sYW0korjM1lw-2">
          <mxGeometry y="20" width="180" height="20" as="geometry" />
        </mxCell>
        <mxCell id="4i83WWW_sYW0korjM1lw-8" value="3v3" style="connectable=0;recursiveResize=0;strokeColor=inherit;fillColor=none;align=center;whiteSpace=wrap;html=1;swimlaneLine=0;rounded=1;" vertex="1" parent="4i83WWW_sYW0korjM1lw-7">
          <mxGeometry width="30" height="20" as="geometry">
            <mxRectangle width="30" height="20" as="alternateBounds" />
          </mxGeometry>
        </mxCell>
        <mxCell id="4i83WWW_sYW0korjM1lw-9" value="ARDUNIO NANO" style="connectable=0;recursiveResize=0;strokeColor=inherit;fillColor=none;align=center;whiteSpace=wrap;html=1;swimlaneLine=0;rounded=1;rowspan=13;colspan=1;" vertex="1" parent="4i83WWW_sYW0korjM1lw-7">
          <mxGeometry x="30" width="120" height="260" as="geometry">
            <mxRectangle width="120" height="20" as="alternateBounds" />
          </mxGeometry>
        </mxCell>
        <mxCell id="4i83WWW_sYW0korjM1lw-10" value="D11" style="connectable=0;recursiveResize=0;strokeColor=inherit;fillColor=none;align=center;whiteSpace=wrap;html=1;swimlaneLine=0;rounded=1;" vertex="1" parent="4i83WWW_sYW0korjM1lw-7">
          <mxGeometry x="150" width="30" height="20" as="geometry">
            <mxRectangle width="30" height="20" as="alternateBounds" />
          </mxGeometry>
        </mxCell>
        <mxCell id="4i83WWW_sYW0korjM1lw-11" style="shape=tableRow;horizontal=0;startSize=0;swimlaneHead=0;swimlaneBody=0;top=0;left=0;bottom=0;right=0;dropTarget=0;collapsible=0;recursiveResize=0;expand=0;fontStyle=0;fillColor=none;strokeColor=inherit;swimlaneLine=0;rounded=1;" vertex="1" parent="4i83WWW_sYW0korjM1lw-2">
          <mxGeometry y="40" width="180" height="20" as="geometry" />
        </mxCell>
        <mxCell id="4i83WWW_sYW0korjM1lw-12" value="REF" style="connectable=0;recursiveResize=0;strokeColor=inherit;fillColor=none;align=center;whiteSpace=wrap;html=1;swimlaneLine=0;rounded=1;" vertex="1" parent="4i83WWW_sYW0korjM1lw-11">
          <mxGeometry width="30" height="20" as="geometry">
            <mxRectangle width="30" height="20" as="alternateBounds" />
          </mxGeometry>
        </mxCell>
        <mxCell id="4i83WWW_sYW0korjM1lw-13" value="" style="connectable=0;recursiveResize=0;strokeColor=inherit;fillColor=none;align=center;whiteSpace=wrap;html=1;swimlaneLine=0;rounded=1;" vertex="1" visible="0" parent="4i83WWW_sYW0korjM1lw-11">
          <mxGeometry x="30" width="120" height="20" as="geometry">
            <mxRectangle width="120" height="20" as="alternateBounds" />
          </mxGeometry>
        </mxCell>
        <mxCell id="4i83WWW_sYW0korjM1lw-14" value="D10" style="connectable=0;recursiveResize=0;strokeColor=inherit;fillColor=none;align=center;whiteSpace=wrap;html=1;swimlaneLine=0;rounded=1;" vertex="1" parent="4i83WWW_sYW0korjM1lw-11">
          <mxGeometry x="150" width="30" height="20" as="geometry">
            <mxRectangle width="30" height="20" as="alternateBounds" />
          </mxGeometry>
        </mxCell>
        <mxCell id="4i83WWW_sYW0korjM1lw-15" style="shape=tableRow;horizontal=0;startSize=0;swimlaneHead=0;swimlaneBody=0;top=0;left=0;bottom=0;right=0;dropTarget=0;collapsible=0;recursiveResize=0;expand=0;fontStyle=0;fillColor=none;strokeColor=inherit;swimlaneLine=0;rounded=1;" vertex="1" parent="4i83WWW_sYW0korjM1lw-2">
          <mxGeometry y="60" width="180" height="20" as="geometry" />
        </mxCell>
        <mxCell id="4i83WWW_sYW0korjM1lw-16" value="A0" style="connectable=0;recursiveResize=0;strokeColor=inherit;fillColor=none;align=center;whiteSpace=wrap;html=1;swimlaneLine=0;rounded=1;" vertex="1" parent="4i83WWW_sYW0korjM1lw-15">
          <mxGeometry width="30" height="20" as="geometry">
            <mxRectangle width="30" height="20" as="alternateBounds" />
          </mxGeometry>
        </mxCell>
        <mxCell id="4i83WWW_sYW0korjM1lw-17" value="" style="connectable=0;recursiveResize=0;strokeColor=inherit;fillColor=none;align=center;whiteSpace=wrap;html=1;swimlaneLine=0;rounded=1;" vertex="1" visible="0" parent="4i83WWW_sYW0korjM1lw-15">
          <mxGeometry x="30" width="120" height="20" as="geometry">
            <mxRectangle width="120" height="20" as="alternateBounds" />
          </mxGeometry>
        </mxCell>
        <mxCell id="4i83WWW_sYW0korjM1lw-18" value="D9" style="connectable=0;recursiveResize=0;strokeColor=inherit;fillColor=none;align=center;whiteSpace=wrap;html=1;swimlaneLine=0;rounded=1;" vertex="1" parent="4i83WWW_sYW0korjM1lw-15">
          <mxGeometry x="150" width="30" height="20" as="geometry">
            <mxRectangle width="30" height="20" as="alternateBounds" />
          </mxGeometry>
        </mxCell>
        <mxCell id="4i83WWW_sYW0korjM1lw-19" style="shape=tableRow;horizontal=0;startSize=0;swimlaneHead=0;swimlaneBody=0;top=0;left=0;bottom=0;right=0;dropTarget=0;collapsible=0;recursiveResize=0;expand=0;fontStyle=0;fillColor=none;strokeColor=inherit;swimlaneLine=0;rounded=1;" vertex="1" parent="4i83WWW_sYW0korjM1lw-2">
          <mxGeometry y="80" width="180" height="20" as="geometry" />
        </mxCell>
        <mxCell id="4i83WWW_sYW0korjM1lw-20" value="A1" style="connectable=0;recursiveResize=0;strokeColor=inherit;fillColor=none;align=center;whiteSpace=wrap;html=1;swimlaneLine=0;rounded=1;" vertex="1" parent="4i83WWW_sYW0korjM1lw-19">
          <mxGeometry width="30" height="20" as="geometry">
            <mxRectangle width="30" height="20" as="alternateBounds" />
          </mxGeometry>
        </mxCell>
        <mxCell id="4i83WWW_sYW0korjM1lw-21" value="" style="connectable=0;recursiveResize=0;strokeColor=inherit;fillColor=none;align=center;whiteSpace=wrap;html=1;swimlaneLine=0;rounded=1;" vertex="1" visible="0" parent="4i83WWW_sYW0korjM1lw-19">
          <mxGeometry x="30" width="120" height="20" as="geometry">
            <mxRectangle width="120" height="20" as="alternateBounds" />
          </mxGeometry>
        </mxCell>
        <mxCell id="4i83WWW_sYW0korjM1lw-22" value="D8" style="connectable=0;recursiveResize=0;strokeColor=inherit;fillColor=none;align=center;whiteSpace=wrap;html=1;swimlaneLine=0;rounded=1;" vertex="1" parent="4i83WWW_sYW0korjM1lw-19">
          <mxGeometry x="150" width="30" height="20" as="geometry">
            <mxRectangle width="30" height="20" as="alternateBounds" />
          </mxGeometry>
        </mxCell>
        <mxCell id="4i83WWW_sYW0korjM1lw-23" style="shape=tableRow;horizontal=0;startSize=0;swimlaneHead=0;swimlaneBody=0;top=0;left=0;bottom=0;right=0;dropTarget=0;collapsible=0;recursiveResize=0;expand=0;fontStyle=0;fillColor=none;strokeColor=inherit;swimlaneLine=0;rounded=1;" vertex="1" parent="4i83WWW_sYW0korjM1lw-2">
          <mxGeometry y="100" width="180" height="20" as="geometry" />
        </mxCell>
        <mxCell id="4i83WWW_sYW0korjM1lw-24" value="A2" style="connectable=0;recursiveResize=0;strokeColor=inherit;fillColor=none;align=center;whiteSpace=wrap;html=1;swimlaneLine=0;rounded=1;" vertex="1" parent="4i83WWW_sYW0korjM1lw-23">
          <mxGeometry width="30" height="20" as="geometry">
            <mxRectangle width="30" height="20" as="alternateBounds" />
          </mxGeometry>
        </mxCell>
        <mxCell id="4i83WWW_sYW0korjM1lw-25" value="" style="connectable=0;recursiveResize=0;strokeColor=inherit;fillColor=none;align=center;whiteSpace=wrap;html=1;swimlaneLine=0;rounded=1;" vertex="1" visible="0" parent="4i83WWW_sYW0korjM1lw-23">
          <mxGeometry x="30" width="120" height="20" as="geometry">
            <mxRectangle width="120" height="20" as="alternateBounds" />
          </mxGeometry>
        </mxCell>
        <mxCell id="4i83WWW_sYW0korjM1lw-26" value="D7" style="connectable=0;recursiveResize=0;strokeColor=inherit;fillColor=none;align=center;whiteSpace=wrap;html=1;swimlaneLine=0;rounded=1;" vertex="1" parent="4i83WWW_sYW0korjM1lw-23">
          <mxGeometry x="150" width="30" height="20" as="geometry">
            <mxRectangle width="30" height="20" as="alternateBounds" />
          </mxGeometry>
        </mxCell>
        <mxCell id="4i83WWW_sYW0korjM1lw-27" style="shape=tableRow;horizontal=0;startSize=0;swimlaneHead=0;swimlaneBody=0;top=0;left=0;bottom=0;right=0;dropTarget=0;collapsible=0;recursiveResize=0;expand=0;fontStyle=0;fillColor=none;strokeColor=inherit;swimlaneLine=0;rounded=1;" vertex="1" parent="4i83WWW_sYW0korjM1lw-2">
          <mxGeometry y="120" width="180" height="20" as="geometry" />
        </mxCell>
        <mxCell id="4i83WWW_sYW0korjM1lw-28" value="A3" style="connectable=0;recursiveResize=0;strokeColor=inherit;fillColor=none;align=center;whiteSpace=wrap;html=1;swimlaneLine=0;rounded=1;" vertex="1" parent="4i83WWW_sYW0korjM1lw-27">
          <mxGeometry width="30" height="20" as="geometry">
            <mxRectangle width="30" height="20" as="alternateBounds" />
          </mxGeometry>
        </mxCell>
        <mxCell id="4i83WWW_sYW0korjM1lw-29" value="&lt;p&gt;&lt;b&gt;ARDUNIO NANO&lt;/b&gt;&lt;/p&gt;" style="connectable=0;recursiveResize=0;strokeColor=inherit;fillColor=none;align=center;whiteSpace=wrap;html=1;swimlaneLine=0;rounded=1;" vertex="1" visible="0" parent="4i83WWW_sYW0korjM1lw-27">
          <mxGeometry x="30" width="120" height="20" as="geometry">
            <mxRectangle width="120" height="20" as="alternateBounds" />
          </mxGeometry>
        </mxCell>
        <mxCell id="4i83WWW_sYW0korjM1lw-30" value="D6" style="connectable=0;recursiveResize=0;strokeColor=inherit;fillColor=none;align=center;whiteSpace=wrap;html=1;swimlaneLine=0;rounded=1;" vertex="1" parent="4i83WWW_sYW0korjM1lw-27">
          <mxGeometry x="150" width="30" height="20" as="geometry">
            <mxRectangle width="30" height="20" as="alternateBounds" />
          </mxGeometry>
        </mxCell>
        <mxCell id="4i83WWW_sYW0korjM1lw-31" style="shape=tableRow;horizontal=0;startSize=0;swimlaneHead=0;swimlaneBody=0;top=0;left=0;bottom=0;right=0;dropTarget=0;collapsible=0;recursiveResize=0;expand=0;fontStyle=0;fillColor=none;strokeColor=inherit;swimlaneLine=0;rounded=1;" vertex="1" parent="4i83WWW_sYW0korjM1lw-2">
          <mxGeometry y="140" width="180" height="20" as="geometry" />
        </mxCell>
        <mxCell id="4i83WWW_sYW0korjM1lw-32" value="A4" style="connectable=0;recursiveResize=0;strokeColor=inherit;fillColor=none;align=center;whiteSpace=wrap;html=1;swimlaneLine=0;rounded=1;" vertex="1" parent="4i83WWW_sYW0korjM1lw-31">
          <mxGeometry width="30" height="20" as="geometry">
            <mxRectangle width="30" height="20" as="alternateBounds" />
          </mxGeometry>
        </mxCell>
        <mxCell id="4i83WWW_sYW0korjM1lw-33" value="" style="connectable=0;recursiveResize=0;strokeColor=inherit;fillColor=none;align=center;whiteSpace=wrap;html=1;swimlaneLine=0;rounded=1;" vertex="1" visible="0" parent="4i83WWW_sYW0korjM1lw-31">
          <mxGeometry x="30" width="120" height="20" as="geometry">
            <mxRectangle width="120" height="20" as="alternateBounds" />
          </mxGeometry>
        </mxCell>
        <mxCell id="4i83WWW_sYW0korjM1lw-34" value="D5" style="connectable=0;recursiveResize=0;strokeColor=inherit;fillColor=none;align=center;whiteSpace=wrap;html=1;swimlaneLine=0;rounded=1;" vertex="1" parent="4i83WWW_sYW0korjM1lw-31">
          <mxGeometry x="150" width="30" height="20" as="geometry">
            <mxRectangle width="30" height="20" as="alternateBounds" />
          </mxGeometry>
        </mxCell>
        <mxCell id="4i83WWW_sYW0korjM1lw-35" style="shape=tableRow;horizontal=0;startSize=0;swimlaneHead=0;swimlaneBody=0;top=0;left=0;bottom=0;right=0;dropTarget=0;collapsible=0;recursiveResize=0;expand=0;fontStyle=0;fillColor=none;strokeColor=inherit;swimlaneLine=0;rounded=1;" vertex="1" parent="4i83WWW_sYW0korjM1lw-2">
          <mxGeometry y="160" width="180" height="20" as="geometry" />
        </mxCell>
        <mxCell id="4i83WWW_sYW0korjM1lw-36" value="A5" style="connectable=0;recursiveResize=0;strokeColor=inherit;fillColor=none;align=center;whiteSpace=wrap;html=1;swimlaneLine=0;rounded=1;" vertex="1" parent="4i83WWW_sYW0korjM1lw-35">
          <mxGeometry width="30" height="20" as="geometry">
            <mxRectangle width="30" height="20" as="alternateBounds" />
          </mxGeometry>
        </mxCell>
        <mxCell id="4i83WWW_sYW0korjM1lw-37" value="" style="connectable=0;recursiveResize=0;strokeColor=inherit;fillColor=none;align=center;whiteSpace=wrap;html=1;swimlaneLine=0;rounded=1;" vertex="1" visible="0" parent="4i83WWW_sYW0korjM1lw-35">
          <mxGeometry x="30" width="120" height="20" as="geometry">
            <mxRectangle width="120" height="20" as="alternateBounds" />
          </mxGeometry>
        </mxCell>
        <mxCell id="4i83WWW_sYW0korjM1lw-38" value="D4" style="connectable=0;recursiveResize=0;strokeColor=inherit;fillColor=none;align=center;whiteSpace=wrap;html=1;swimlaneLine=0;rounded=1;" vertex="1" parent="4i83WWW_sYW0korjM1lw-35">
          <mxGeometry x="150" width="30" height="20" as="geometry">
            <mxRectangle width="30" height="20" as="alternateBounds" />
          </mxGeometry>
        </mxCell>
        <mxCell id="4i83WWW_sYW0korjM1lw-39" style="shape=tableRow;horizontal=0;startSize=0;swimlaneHead=0;swimlaneBody=0;top=0;left=0;bottom=0;right=0;dropTarget=0;collapsible=0;recursiveResize=0;expand=0;fontStyle=0;fillColor=none;strokeColor=inherit;swimlaneLine=0;rounded=1;" vertex="1" parent="4i83WWW_sYW0korjM1lw-2">
          <mxGeometry y="180" width="180" height="20" as="geometry" />
        </mxCell>
        <mxCell id="4i83WWW_sYW0korjM1lw-40" value="A6" style="connectable=0;recursiveResize=0;strokeColor=inherit;fillColor=none;align=center;whiteSpace=wrap;html=1;swimlaneLine=0;rounded=1;" vertex="1" parent="4i83WWW_sYW0korjM1lw-39">
          <mxGeometry width="30" height="20" as="geometry">
            <mxRectangle width="30" height="20" as="alternateBounds" />
          </mxGeometry>
        </mxCell>
        <mxCell id="4i83WWW_sYW0korjM1lw-41" value="" style="connectable=0;recursiveResize=0;strokeColor=inherit;fillColor=none;align=center;whiteSpace=wrap;html=1;swimlaneLine=0;rounded=1;" vertex="1" visible="0" parent="4i83WWW_sYW0korjM1lw-39">
          <mxGeometry x="30" width="120" height="20" as="geometry">
            <mxRectangle width="120" height="20" as="alternateBounds" />
          </mxGeometry>
        </mxCell>
        <mxCell id="4i83WWW_sYW0korjM1lw-42" value="D3" style="connectable=0;recursiveResize=0;strokeColor=inherit;fillColor=none;align=center;whiteSpace=wrap;html=1;swimlaneLine=0;rounded=1;" vertex="1" parent="4i83WWW_sYW0korjM1lw-39">
          <mxGeometry x="150" width="30" height="20" as="geometry">
            <mxRectangle width="30" height="20" as="alternateBounds" />
          </mxGeometry>
        </mxCell>
        <mxCell id="4i83WWW_sYW0korjM1lw-43" style="shape=tableRow;horizontal=0;startSize=0;swimlaneHead=0;swimlaneBody=0;top=0;left=0;bottom=0;right=0;dropTarget=0;collapsible=0;recursiveResize=0;expand=0;fontStyle=0;fillColor=none;strokeColor=inherit;swimlaneLine=0;rounded=1;" vertex="1" parent="4i83WWW_sYW0korjM1lw-2">
          <mxGeometry y="200" width="180" height="20" as="geometry" />
        </mxCell>
        <mxCell id="4i83WWW_sYW0korjM1lw-44" value="A7" style="connectable=0;recursiveResize=0;strokeColor=inherit;fillColor=none;align=center;whiteSpace=wrap;html=1;swimlaneLine=0;rounded=1;" vertex="1" parent="4i83WWW_sYW0korjM1lw-43">
          <mxGeometry width="30" height="20" as="geometry">
            <mxRectangle width="30" height="20" as="alternateBounds" />
          </mxGeometry>
        </mxCell>
        <mxCell id="4i83WWW_sYW0korjM1lw-45" value="" style="connectable=0;recursiveResize=0;strokeColor=inherit;fillColor=none;align=center;whiteSpace=wrap;html=1;swimlaneLine=0;rounded=1;" vertex="1" visible="0" parent="4i83WWW_sYW0korjM1lw-43">
          <mxGeometry x="30" width="120" height="20" as="geometry">
            <mxRectangle width="120" height="20" as="alternateBounds" />
          </mxGeometry>
        </mxCell>
        <mxCell id="4i83WWW_sYW0korjM1lw-46" value="D2" style="connectable=0;recursiveResize=0;strokeColor=inherit;fillColor=none;align=center;whiteSpace=wrap;html=1;swimlaneLine=0;rounded=1;" vertex="1" parent="4i83WWW_sYW0korjM1lw-43">
          <mxGeometry x="150" width="30" height="20" as="geometry">
            <mxRectangle width="30" height="20" as="alternateBounds" />
          </mxGeometry>
        </mxCell>
        <mxCell id="4i83WWW_sYW0korjM1lw-47" style="shape=tableRow;horizontal=0;startSize=0;swimlaneHead=0;swimlaneBody=0;top=0;left=0;bottom=0;right=0;dropTarget=0;collapsible=0;recursiveResize=0;expand=0;fontStyle=0;fillColor=none;strokeColor=inherit;swimlaneLine=0;rounded=1;" vertex="1" parent="4i83WWW_sYW0korjM1lw-2">
          <mxGeometry y="220" width="180" height="20" as="geometry" />
        </mxCell>
        <mxCell id="4i83WWW_sYW0korjM1lw-48" value="5V" style="connectable=0;recursiveResize=0;strokeColor=inherit;fillColor=none;align=center;whiteSpace=wrap;html=1;swimlaneLine=0;rounded=1;" vertex="1" parent="4i83WWW_sYW0korjM1lw-47">
          <mxGeometry width="30" height="20" as="geometry">
            <mxRectangle width="30" height="20" as="alternateBounds" />
          </mxGeometry>
        </mxCell>
        <mxCell id="4i83WWW_sYW0korjM1lw-49" value="" style="connectable=0;recursiveResize=0;strokeColor=inherit;fillColor=none;align=center;whiteSpace=wrap;html=1;swimlaneLine=0;rounded=1;" vertex="1" visible="0" parent="4i83WWW_sYW0korjM1lw-47">
          <mxGeometry x="30" width="120" height="20" as="geometry">
            <mxRectangle width="120" height="20" as="alternateBounds" />
          </mxGeometry>
        </mxCell>
        <mxCell id="4i83WWW_sYW0korjM1lw-50" value="GND" style="connectable=0;recursiveResize=0;strokeColor=inherit;fillColor=none;align=center;whiteSpace=wrap;html=1;swimlaneLine=0;rounded=1;" vertex="1" parent="4i83WWW_sYW0korjM1lw-47">
          <mxGeometry x="150" width="30" height="20" as="geometry">
            <mxRectangle width="30" height="20" as="alternateBounds" />
          </mxGeometry>
        </mxCell>
        <mxCell id="4i83WWW_sYW0korjM1lw-51" style="shape=tableRow;horizontal=0;startSize=0;swimlaneHead=0;swimlaneBody=0;top=0;left=0;bottom=0;right=0;dropTarget=0;collapsible=0;recursiveResize=0;expand=0;fontStyle=0;fillColor=none;strokeColor=inherit;swimlaneLine=0;rounded=1;" vertex="1" parent="4i83WWW_sYW0korjM1lw-2">
          <mxGeometry y="240" width="180" height="20" as="geometry" />
        </mxCell>
        <mxCell id="4i83WWW_sYW0korjM1lw-52" value="RST" style="connectable=0;recursiveResize=0;strokeColor=inherit;fillColor=none;align=center;whiteSpace=wrap;html=1;swimlaneLine=0;rounded=1;" vertex="1" parent="4i83WWW_sYW0korjM1lw-51">
          <mxGeometry width="30" height="20" as="geometry">
            <mxRectangle width="30" height="20" as="alternateBounds" />
          </mxGeometry>
        </mxCell>
        <mxCell id="4i83WWW_sYW0korjM1lw-53" value="" style="connectable=0;recursiveResize=0;strokeColor=inherit;fillColor=none;align=center;whiteSpace=wrap;html=1;swimlaneLine=0;rounded=1;" vertex="1" visible="0" parent="4i83WWW_sYW0korjM1lw-51">
          <mxGeometry x="30" width="120" height="20" as="geometry">
            <mxRectangle width="120" height="20" as="alternateBounds" />
          </mxGeometry>
        </mxCell>
        <mxCell id="4i83WWW_sYW0korjM1lw-54" value="RST" style="connectable=0;recursiveResize=0;strokeColor=inherit;fillColor=none;align=center;whiteSpace=wrap;html=1;swimlaneLine=0;rounded=1;" vertex="1" parent="4i83WWW_sYW0korjM1lw-51">
          <mxGeometry x="150" width="30" height="20" as="geometry">
            <mxRectangle width="30" height="20" as="alternateBounds" />
          </mxGeometry>
        </mxCell>
        <mxCell id="4i83WWW_sYW0korjM1lw-55" style="shape=tableRow;horizontal=0;startSize=0;swimlaneHead=0;swimlaneBody=0;top=0;left=0;bottom=0;right=0;dropTarget=0;collapsible=0;recursiveResize=0;expand=0;fontStyle=0;fillColor=none;strokeColor=inherit;swimlaneLine=0;rounded=1;" vertex="1" parent="4i83WWW_sYW0korjM1lw-2">
          <mxGeometry y="260" width="180" height="20" as="geometry" />
        </mxCell>
        <mxCell id="4i83WWW_sYW0korjM1lw-56" value="GND" style="connectable=0;recursiveResize=0;strokeColor=inherit;fillColor=none;align=center;whiteSpace=wrap;html=1;swimlaneLine=0;rounded=1;" vertex="1" parent="4i83WWW_sYW0korjM1lw-55">
          <mxGeometry width="30" height="20" as="geometry">
            <mxRectangle width="30" height="20" as="alternateBounds" />
          </mxGeometry>
        </mxCell>
        <mxCell id="4i83WWW_sYW0korjM1lw-57" value="" style="connectable=0;recursiveResize=0;strokeColor=inherit;fillColor=none;align=center;whiteSpace=wrap;html=1;swimlaneLine=0;rounded=1;" vertex="1" visible="0" parent="4i83WWW_sYW0korjM1lw-55">
          <mxGeometry x="30" width="120" height="20" as="geometry">
            <mxRectangle width="120" height="20" as="alternateBounds" />
          </mxGeometry>
        </mxCell>
        <mxCell id="4i83WWW_sYW0korjM1lw-58" value="Value 9" style="connectable=0;recursiveResize=0;strokeColor=inherit;fillColor=none;align=center;whiteSpace=wrap;html=1;swimlaneLine=0;rounded=1;" vertex="1" parent="4i83WWW_sYW0korjM1lw-55">
          <mxGeometry x="150" width="30" height="20" as="geometry">
            <mxRectangle width="30" height="20" as="alternateBounds" />
          </mxGeometry>
        </mxCell>
        <mxCell id="4i83WWW_sYW0korjM1lw-59" style="shape=tableRow;horizontal=0;startSize=0;swimlaneHead=0;swimlaneBody=0;top=0;left=0;bottom=0;right=0;dropTarget=0;collapsible=0;recursiveResize=0;expand=0;fontStyle=0;fillColor=none;strokeColor=inherit;swimlaneLine=0;rounded=1;" vertex="1" parent="4i83WWW_sYW0korjM1lw-2">
          <mxGeometry y="280" width="180" height="20" as="geometry" />
        </mxCell>
        <mxCell id="4i83WWW_sYW0korjM1lw-60" value="VIN" style="connectable=0;recursiveResize=0;strokeColor=inherit;fillColor=none;align=center;whiteSpace=wrap;html=1;swimlaneLine=0;rounded=1;" vertex="1" parent="4i83WWW_sYW0korjM1lw-59">
          <mxGeometry width="30" height="20" as="geometry">
            <mxRectangle width="30" height="20" as="alternateBounds" />
          </mxGeometry>
        </mxCell>
        <mxCell id="4i83WWW_sYW0korjM1lw-61" value="ICSP" style="connectable=0;recursiveResize=0;strokeColor=inherit;fillColor=none;align=center;whiteSpace=wrap;html=1;swimlaneLine=0;rounded=1;" vertex="1" parent="4i83WWW_sYW0korjM1lw-59">
          <mxGeometry x="30" width="120" height="20" as="geometry">
            <mxRectangle width="120" height="20" as="alternateBounds" />
          </mxGeometry>
        </mxCell>
        <mxCell id="4i83WWW_sYW0korjM1lw-62" value="Value 9" style="connectable=0;recursiveResize=0;strokeColor=inherit;fillColor=none;align=center;whiteSpace=wrap;html=1;swimlaneLine=0;rounded=1;" vertex="1" parent="4i83WWW_sYW0korjM1lw-59">
          <mxGeometry x="150" width="30" height="20" as="geometry">
            <mxRectangle width="30" height="20" as="alternateBounds" />
          </mxGeometry>
        </mxCell>
        <mxCell id="4i83WWW_sYW0korjM1lw-89" value="" style="childLayout=tableLayout;recursiveResize=0;shadow=0;fillColor=none;rounded=1;" vertex="1" parent="1">
          <mxGeometry x="-250" y="220" width="120" height="80" as="geometry" />
        </mxCell>
        <mxCell id="4i83WWW_sYW0korjM1lw-90" value="" style="shape=tableRow;horizontal=0;startSize=0;swimlaneHead=0;swimlaneBody=0;top=0;left=0;bottom=0;right=0;dropTarget=0;collapsible=0;recursiveResize=0;expand=0;fontStyle=0;fillColor=none;strokeColor=inherit;rounded=1;" vertex="1" parent="4i83WWW_sYW0korjM1lw-89">
          <mxGeometry width="120" height="20" as="geometry" />
        </mxCell>
        <mxCell id="4i83WWW_sYW0korjM1lw-91" value="&lt;div&gt;Speed&amp;nbsp;&lt;/div&gt;&lt;div&gt;Sensor&lt;/div&gt;" style="connectable=0;recursiveResize=0;strokeColor=inherit;fillColor=none;align=center;whiteSpace=wrap;html=1;rounded=1;rowspan=4;colspan=1;" vertex="1" parent="4i83WWW_sYW0korjM1lw-90">
          <mxGeometry width="80" height="80" as="geometry">
            <mxRectangle width="80" height="20" as="alternateBounds" />
          </mxGeometry>
        </mxCell>
        <mxCell id="4i83WWW_sYW0korjM1lw-92" value="Vcc" style="connectable=0;recursiveResize=0;strokeColor=inherit;fillColor=none;align=center;whiteSpace=wrap;html=1;rounded=1;" vertex="1" parent="4i83WWW_sYW0korjM1lw-90">
          <mxGeometry x="80" width="40" height="20" as="geometry">
            <mxRectangle width="40" height="20" as="alternateBounds" />
          </mxGeometry>
        </mxCell>
        <mxCell id="4i83WWW_sYW0korjM1lw-94" style="shape=tableRow;horizontal=0;startSize=0;swimlaneHead=0;swimlaneBody=0;top=0;left=0;bottom=0;right=0;dropTarget=0;collapsible=0;recursiveResize=0;expand=0;fontStyle=0;fillColor=none;strokeColor=inherit;rounded=1;" vertex="1" parent="4i83WWW_sYW0korjM1lw-89">
          <mxGeometry y="20" width="120" height="20" as="geometry" />
        </mxCell>
        <mxCell id="4i83WWW_sYW0korjM1lw-95" value="Speed Sensor" style="connectable=0;recursiveResize=0;strokeColor=inherit;fillColor=none;align=center;whiteSpace=wrap;html=1;rounded=1;" vertex="1" visible="0" parent="4i83WWW_sYW0korjM1lw-94">
          <mxGeometry width="80" height="20" as="geometry">
            <mxRectangle width="80" height="20" as="alternateBounds" />
          </mxGeometry>
        </mxCell>
        <mxCell id="4i83WWW_sYW0korjM1lw-96" value="GND" style="connectable=0;recursiveResize=0;strokeColor=inherit;fillColor=none;align=center;whiteSpace=wrap;html=1;rounded=1;" vertex="1" parent="4i83WWW_sYW0korjM1lw-94">
          <mxGeometry x="80" width="40" height="20" as="geometry">
            <mxRectangle width="40" height="20" as="alternateBounds" />
          </mxGeometry>
        </mxCell>
        <mxCell id="4i83WWW_sYW0korjM1lw-98" style="shape=tableRow;horizontal=0;startSize=0;swimlaneHead=0;swimlaneBody=0;top=0;left=0;bottom=0;right=0;dropTarget=0;collapsible=0;recursiveResize=0;expand=0;fontStyle=0;fillColor=none;strokeColor=inherit;rounded=1;" vertex="1" parent="4i83WWW_sYW0korjM1lw-89">
          <mxGeometry y="40" width="120" height="20" as="geometry" />
        </mxCell>
        <mxCell id="4i83WWW_sYW0korjM1lw-99" value="" style="connectable=0;recursiveResize=0;strokeColor=inherit;fillColor=none;align=center;whiteSpace=wrap;html=1;rounded=1;" vertex="1" visible="0" parent="4i83WWW_sYW0korjM1lw-98">
          <mxGeometry width="80" height="20" as="geometry">
            <mxRectangle width="80" height="20" as="alternateBounds" />
          </mxGeometry>
        </mxCell>
        <mxCell id="4i83WWW_sYW0korjM1lw-100" value="D0" style="connectable=0;recursiveResize=0;strokeColor=inherit;fillColor=none;align=center;whiteSpace=wrap;html=1;rounded=1;" vertex="1" parent="4i83WWW_sYW0korjM1lw-98">
          <mxGeometry x="80" width="40" height="20" as="geometry">
            <mxRectangle width="40" height="20" as="alternateBounds" />
          </mxGeometry>
        </mxCell>
        <mxCell id="4i83WWW_sYW0korjM1lw-231" style="shape=tableRow;horizontal=0;startSize=0;swimlaneHead=0;swimlaneBody=0;top=0;left=0;bottom=0;right=0;dropTarget=0;collapsible=0;recursiveResize=0;expand=0;fontStyle=0;fillColor=none;strokeColor=inherit;rounded=1;" vertex="1" parent="4i83WWW_sYW0korjM1lw-89">
          <mxGeometry y="60" width="120" height="20" as="geometry" />
        </mxCell>
        <mxCell id="4i83WWW_sYW0korjM1lw-232" style="connectable=0;recursiveResize=0;strokeColor=inherit;fillColor=none;align=center;whiteSpace=wrap;html=1;rounded=1;" vertex="1" visible="0" parent="4i83WWW_sYW0korjM1lw-231">
          <mxGeometry width="80" height="20" as="geometry">
            <mxRectangle width="80" height="20" as="alternateBounds" />
          </mxGeometry>
        </mxCell>
        <mxCell id="4i83WWW_sYW0korjM1lw-233" value="A0" style="connectable=0;recursiveResize=0;strokeColor=inherit;fillColor=none;align=center;whiteSpace=wrap;html=1;rounded=1;" vertex="1" parent="4i83WWW_sYW0korjM1lw-231">
          <mxGeometry x="80" width="40" height="20" as="geometry">
            <mxRectangle width="40" height="20" as="alternateBounds" />
          </mxGeometry>
        </mxCell>
        <mxCell id="4i83WWW_sYW0korjM1lw-102" value="" style="childLayout=tableLayout;recursiveResize=0;shadow=0;fillColor=none;spacing=0;rounded=1;" vertex="1" parent="1">
          <mxGeometry x="-250" y="350" width="180" height="140" as="geometry" />
        </mxCell>
        <mxCell id="4i83WWW_sYW0korjM1lw-103" value="" style="shape=tableRow;horizontal=0;startSize=0;swimlaneHead=0;swimlaneBody=0;top=0;left=0;bottom=0;right=0;dropTarget=0;collapsible=0;recursiveResize=0;expand=0;fontStyle=0;fillColor=none;strokeColor=inherit;spacing=0;rounded=1;" vertex="1" parent="4i83WWW_sYW0korjM1lw-102">
          <mxGeometry width="180" height="20" as="geometry" />
        </mxCell>
        <mxCell id="4i83WWW_sYW0korjM1lw-112" value="INT" style="connectable=0;recursiveResize=0;strokeColor=inherit;fillColor=none;align=center;whiteSpace=wrap;html=1;spacing=0;rounded=1;" vertex="1" parent="4i83WWW_sYW0korjM1lw-103">
          <mxGeometry width="30" height="20" as="geometry">
            <mxRectangle width="30" height="20" as="alternateBounds" />
          </mxGeometry>
        </mxCell>
        <mxCell id="4i83WWW_sYW0korjM1lw-104" value="CAN MODULE" style="connectable=0;recursiveResize=0;strokeColor=inherit;fillColor=none;align=center;whiteSpace=wrap;html=1;spacing=0;rounded=1;rowspan=7;colspan=1;" vertex="1" parent="4i83WWW_sYW0korjM1lw-103">
          <mxGeometry x="30" width="130" height="140" as="geometry">
            <mxRectangle width="130" height="20" as="alternateBounds" />
          </mxGeometry>
        </mxCell>
        <mxCell id="4i83WWW_sYW0korjM1lw-105" value="" style="connectable=0;recursiveResize=0;strokeColor=inherit;fillColor=none;align=center;whiteSpace=wrap;html=1;spacing=0;rounded=1;" vertex="1" parent="4i83WWW_sYW0korjM1lw-103">
          <mxGeometry x="160" width="20" height="20" as="geometry">
            <mxRectangle width="20" height="20" as="alternateBounds" />
          </mxGeometry>
        </mxCell>
        <mxCell id="4i83WWW_sYW0korjM1lw-106" style="shape=tableRow;horizontal=0;startSize=0;swimlaneHead=0;swimlaneBody=0;top=0;left=0;bottom=0;right=0;dropTarget=0;collapsible=0;recursiveResize=0;expand=0;fontStyle=0;fillColor=none;strokeColor=inherit;spacing=0;rounded=1;" vertex="1" parent="4i83WWW_sYW0korjM1lw-102">
          <mxGeometry y="20" width="180" height="20" as="geometry" />
        </mxCell>
        <mxCell id="4i83WWW_sYW0korjM1lw-113" value="SCK" style="connectable=0;recursiveResize=0;strokeColor=inherit;fillColor=none;align=center;whiteSpace=wrap;html=1;spacing=0;rounded=1;" vertex="1" parent="4i83WWW_sYW0korjM1lw-106">
          <mxGeometry width="30" height="20" as="geometry">
            <mxRectangle width="30" height="20" as="alternateBounds" />
          </mxGeometry>
        </mxCell>
        <mxCell id="4i83WWW_sYW0korjM1lw-107" value="" style="connectable=0;recursiveResize=0;strokeColor=inherit;fillColor=none;align=center;whiteSpace=wrap;html=1;spacing=0;rounded=1;" vertex="1" visible="0" parent="4i83WWW_sYW0korjM1lw-106">
          <mxGeometry x="30" width="130" height="20" as="geometry">
            <mxRectangle width="130" height="20" as="alternateBounds" />
          </mxGeometry>
        </mxCell>
        <mxCell id="4i83WWW_sYW0korjM1lw-108" value="" style="connectable=0;recursiveResize=0;strokeColor=inherit;fillColor=none;align=center;whiteSpace=wrap;html=1;spacing=0;rounded=1;" vertex="1" parent="4i83WWW_sYW0korjM1lw-106">
          <mxGeometry x="160" width="20" height="20" as="geometry">
            <mxRectangle width="20" height="20" as="alternateBounds" />
          </mxGeometry>
        </mxCell>
        <mxCell id="4i83WWW_sYW0korjM1lw-109" style="shape=tableRow;horizontal=0;startSize=0;swimlaneHead=0;swimlaneBody=0;top=0;left=0;bottom=0;right=0;dropTarget=0;collapsible=0;recursiveResize=0;expand=0;fontStyle=0;fillColor=none;strokeColor=inherit;spacing=0;rounded=1;" vertex="1" parent="4i83WWW_sYW0korjM1lw-102">
          <mxGeometry y="40" width="180" height="20" as="geometry" />
        </mxCell>
        <mxCell id="4i83WWW_sYW0korjM1lw-114" value="SI" style="connectable=0;recursiveResize=0;strokeColor=inherit;fillColor=none;align=center;whiteSpace=wrap;html=1;spacing=0;rounded=1;" vertex="1" parent="4i83WWW_sYW0korjM1lw-109">
          <mxGeometry width="30" height="20" as="geometry">
            <mxRectangle width="30" height="20" as="alternateBounds" />
          </mxGeometry>
        </mxCell>
        <mxCell id="4i83WWW_sYW0korjM1lw-110" value="" style="connectable=0;recursiveResize=0;strokeColor=inherit;fillColor=none;align=center;whiteSpace=wrap;html=1;spacing=0;rounded=1;" vertex="1" visible="0" parent="4i83WWW_sYW0korjM1lw-109">
          <mxGeometry x="30" width="130" height="20" as="geometry">
            <mxRectangle width="130" height="20" as="alternateBounds" />
          </mxGeometry>
        </mxCell>
        <mxCell id="4i83WWW_sYW0korjM1lw-111" value="H" style="connectable=0;recursiveResize=0;strokeColor=inherit;fillColor=none;align=center;whiteSpace=wrap;html=1;spacing=0;rounded=1;" vertex="1" parent="4i83WWW_sYW0korjM1lw-109">
          <mxGeometry x="160" width="20" height="20" as="geometry">
            <mxRectangle width="20" height="20" as="alternateBounds" />
          </mxGeometry>
        </mxCell>
        <mxCell id="4i83WWW_sYW0korjM1lw-115" style="shape=tableRow;horizontal=0;startSize=0;swimlaneHead=0;swimlaneBody=0;top=0;left=0;bottom=0;right=0;dropTarget=0;collapsible=0;recursiveResize=0;expand=0;fontStyle=0;fillColor=none;strokeColor=inherit;spacing=0;rounded=1;" vertex="1" parent="4i83WWW_sYW0korjM1lw-102">
          <mxGeometry y="60" width="180" height="20" as="geometry" />
        </mxCell>
        <mxCell id="4i83WWW_sYW0korjM1lw-116" value="SO" style="connectable=0;recursiveResize=0;strokeColor=inherit;fillColor=none;align=center;whiteSpace=wrap;html=1;spacing=0;rounded=1;" vertex="1" parent="4i83WWW_sYW0korjM1lw-115">
          <mxGeometry width="30" height="20" as="geometry">
            <mxRectangle width="30" height="20" as="alternateBounds" />
          </mxGeometry>
        </mxCell>
        <mxCell id="4i83WWW_sYW0korjM1lw-117" value="CAN MODULE" style="connectable=0;recursiveResize=0;strokeColor=inherit;fillColor=none;align=center;whiteSpace=wrap;html=1;fontStyle=1;spacing=0;rounded=1;" vertex="1" visible="0" parent="4i83WWW_sYW0korjM1lw-115">
          <mxGeometry x="30" width="130" height="20" as="geometry">
            <mxRectangle width="130" height="20" as="alternateBounds" />
          </mxGeometry>
        </mxCell>
        <mxCell id="4i83WWW_sYW0korjM1lw-118" value="L" style="connectable=0;recursiveResize=0;strokeColor=inherit;fillColor=none;align=center;whiteSpace=wrap;html=1;spacing=0;rounded=1;" vertex="1" parent="4i83WWW_sYW0korjM1lw-115">
          <mxGeometry x="160" width="20" height="20" as="geometry">
            <mxRectangle width="20" height="20" as="alternateBounds" />
          </mxGeometry>
        </mxCell>
        <mxCell id="4i83WWW_sYW0korjM1lw-119" style="shape=tableRow;horizontal=0;startSize=0;swimlaneHead=0;swimlaneBody=0;top=0;left=0;bottom=0;right=0;dropTarget=0;collapsible=0;recursiveResize=0;expand=0;fontStyle=0;fillColor=none;strokeColor=inherit;spacing=0;rounded=1;" vertex="1" parent="4i83WWW_sYW0korjM1lw-102">
          <mxGeometry y="80" width="180" height="20" as="geometry" />
        </mxCell>
        <mxCell id="4i83WWW_sYW0korjM1lw-120" value="CS" style="connectable=0;recursiveResize=0;strokeColor=inherit;fillColor=none;align=center;whiteSpace=wrap;html=1;spacing=0;rounded=1;" vertex="1" parent="4i83WWW_sYW0korjM1lw-119">
          <mxGeometry width="30" height="20" as="geometry">
            <mxRectangle width="30" height="20" as="alternateBounds" />
          </mxGeometry>
        </mxCell>
        <mxCell id="4i83WWW_sYW0korjM1lw-121" style="connectable=0;recursiveResize=0;strokeColor=inherit;fillColor=none;align=center;whiteSpace=wrap;html=1;spacing=0;rounded=1;" vertex="1" visible="0" parent="4i83WWW_sYW0korjM1lw-119">
          <mxGeometry x="30" width="130" height="20" as="geometry">
            <mxRectangle width="130" height="20" as="alternateBounds" />
          </mxGeometry>
        </mxCell>
        <mxCell id="4i83WWW_sYW0korjM1lw-122" style="connectable=0;recursiveResize=0;strokeColor=inherit;fillColor=none;align=center;whiteSpace=wrap;html=1;spacing=0;rounded=1;" vertex="1" parent="4i83WWW_sYW0korjM1lw-119">
          <mxGeometry x="160" width="20" height="20" as="geometry">
            <mxRectangle width="20" height="20" as="alternateBounds" />
          </mxGeometry>
        </mxCell>
        <mxCell id="4i83WWW_sYW0korjM1lw-123" style="shape=tableRow;horizontal=0;startSize=0;swimlaneHead=0;swimlaneBody=0;top=0;left=0;bottom=0;right=0;dropTarget=0;collapsible=0;recursiveResize=0;expand=0;fontStyle=0;fillColor=none;strokeColor=inherit;spacing=0;rounded=1;" vertex="1" parent="4i83WWW_sYW0korjM1lw-102">
          <mxGeometry y="100" width="180" height="20" as="geometry" />
        </mxCell>
        <mxCell id="4i83WWW_sYW0korjM1lw-124" value="GND" style="connectable=0;recursiveResize=0;strokeColor=inherit;fillColor=none;align=center;whiteSpace=wrap;html=1;spacing=0;rounded=1;" vertex="1" parent="4i83WWW_sYW0korjM1lw-123">
          <mxGeometry width="30" height="20" as="geometry">
            <mxRectangle width="30" height="20" as="alternateBounds" />
          </mxGeometry>
        </mxCell>
        <mxCell id="4i83WWW_sYW0korjM1lw-125" style="connectable=0;recursiveResize=0;strokeColor=inherit;fillColor=none;align=center;whiteSpace=wrap;html=1;spacing=0;rounded=1;" vertex="1" visible="0" parent="4i83WWW_sYW0korjM1lw-123">
          <mxGeometry x="30" width="130" height="20" as="geometry">
            <mxRectangle width="130" height="20" as="alternateBounds" />
          </mxGeometry>
        </mxCell>
        <mxCell id="4i83WWW_sYW0korjM1lw-126" style="connectable=0;recursiveResize=0;strokeColor=inherit;fillColor=none;align=center;whiteSpace=wrap;html=1;spacing=0;rounded=1;" vertex="1" parent="4i83WWW_sYW0korjM1lw-123">
          <mxGeometry x="160" width="20" height="20" as="geometry">
            <mxRectangle width="20" height="20" as="alternateBounds" />
          </mxGeometry>
        </mxCell>
        <mxCell id="4i83WWW_sYW0korjM1lw-127" style="shape=tableRow;horizontal=0;startSize=0;swimlaneHead=0;swimlaneBody=0;top=0;left=0;bottom=0;right=0;dropTarget=0;collapsible=0;recursiveResize=0;expand=0;fontStyle=0;fillColor=none;strokeColor=inherit;spacing=0;rounded=1;" vertex="1" parent="4i83WWW_sYW0korjM1lw-102">
          <mxGeometry y="120" width="180" height="20" as="geometry" />
        </mxCell>
        <mxCell id="4i83WWW_sYW0korjM1lw-128" value="VCC" style="connectable=0;recursiveResize=0;strokeColor=inherit;fillColor=none;align=center;whiteSpace=wrap;html=1;spacing=0;rounded=1;" vertex="1" parent="4i83WWW_sYW0korjM1lw-127">
          <mxGeometry width="30" height="20" as="geometry">
            <mxRectangle width="30" height="20" as="alternateBounds" />
          </mxGeometry>
        </mxCell>
        <mxCell id="4i83WWW_sYW0korjM1lw-129" style="connectable=0;recursiveResize=0;strokeColor=inherit;fillColor=none;align=center;whiteSpace=wrap;html=1;spacing=0;rounded=1;" vertex="1" visible="0" parent="4i83WWW_sYW0korjM1lw-127">
          <mxGeometry x="30" width="130" height="20" as="geometry">
            <mxRectangle width="130" height="20" as="alternateBounds" />
          </mxGeometry>
        </mxCell>
        <mxCell id="4i83WWW_sYW0korjM1lw-130" style="connectable=0;recursiveResize=0;strokeColor=inherit;fillColor=none;align=center;whiteSpace=wrap;html=1;spacing=0;rounded=1;" vertex="1" parent="4i83WWW_sYW0korjM1lw-127">
          <mxGeometry x="160" width="20" height="20" as="geometry">
            <mxRectangle width="20" height="20" as="alternateBounds" />
          </mxGeometry>
        </mxCell>
        <mxCell id="4i83WWW_sYW0korjM1lw-189" value="" style="childLayout=tableLayout;recursiveResize=0;shadow=0;fillColor=none;spacing=0;rounded=1;" vertex="1" parent="1">
          <mxGeometry x="460" y="300" width="230" height="160" as="geometry" />
        </mxCell>
        <mxCell id="4i83WWW_sYW0korjM1lw-190" value="" style="shape=tableRow;horizontal=0;startSize=0;swimlaneHead=0;swimlaneBody=0;top=0;left=0;bottom=0;right=0;dropTarget=0;collapsible=0;recursiveResize=0;expand=0;fontStyle=0;fillColor=none;strokeColor=inherit;spacing=0;rounded=1;" vertex="1" parent="4i83WWW_sYW0korjM1lw-189">
          <mxGeometry width="230" height="20" as="geometry" />
        </mxCell>
        <mxCell id="4i83WWW_sYW0korjM1lw-191" value="-" style="connectable=0;recursiveResize=0;strokeColor=inherit;fillColor=none;align=center;whiteSpace=wrap;html=1;spacing=0;rounded=1;" vertex="1" parent="4i83WWW_sYW0korjM1lw-190">
          <mxGeometry width="20" height="20" as="geometry">
            <mxRectangle width="20" height="20" as="alternateBounds" />
          </mxGeometry>
        </mxCell>
        <mxCell id="4i83WWW_sYW0korjM1lw-192" value="DC8-28V" style="connectable=0;recursiveResize=0;strokeColor=inherit;fillColor=none;align=center;whiteSpace=wrap;html=1;spacing=0;rounded=1;rowspan=2;colspan=1;" vertex="1" parent="4i83WWW_sYW0korjM1lw-190">
          <mxGeometry x="20" width="60" height="40" as="geometry">
            <mxRectangle width="60" height="20" as="alternateBounds" />
          </mxGeometry>
        </mxCell>
        <mxCell id="4i83WWW_sYW0korjM1lw-222" value="2CH CAN RPi HAT" style="connectable=0;recursiveResize=0;strokeColor=inherit;fillColor=none;align=center;whiteSpace=wrap;html=1;spacing=0;rounded=1;rowspan=8;colspan=1;" vertex="1" parent="4i83WWW_sYW0korjM1lw-190">
          <mxGeometry x="80" width="150" height="160" as="geometry">
            <mxRectangle width="150" height="20" as="alternateBounds" />
          </mxGeometry>
        </mxCell>
        <mxCell id="4i83WWW_sYW0korjM1lw-194" style="shape=tableRow;horizontal=0;startSize=0;swimlaneHead=0;swimlaneBody=0;top=0;left=0;bottom=0;right=0;dropTarget=0;collapsible=0;recursiveResize=0;expand=0;fontStyle=0;fillColor=none;strokeColor=inherit;spacing=0;rounded=1;" vertex="1" parent="4i83WWW_sYW0korjM1lw-189">
          <mxGeometry y="20" width="230" height="20" as="geometry" />
        </mxCell>
        <mxCell id="4i83WWW_sYW0korjM1lw-195" value="+" style="connectable=0;recursiveResize=0;strokeColor=inherit;fillColor=none;align=center;whiteSpace=wrap;html=1;spacing=0;rounded=1;" vertex="1" parent="4i83WWW_sYW0korjM1lw-194">
          <mxGeometry width="20" height="20" as="geometry">
            <mxRectangle width="20" height="20" as="alternateBounds" />
          </mxGeometry>
        </mxCell>
        <mxCell id="4i83WWW_sYW0korjM1lw-196" value="" style="connectable=0;recursiveResize=0;strokeColor=inherit;fillColor=none;align=center;whiteSpace=wrap;html=1;spacing=0;rounded=1;" vertex="1" visible="0" parent="4i83WWW_sYW0korjM1lw-194">
          <mxGeometry x="20" width="60" height="20" as="geometry">
            <mxRectangle width="60" height="20" as="alternateBounds" />
          </mxGeometry>
        </mxCell>
        <mxCell id="4i83WWW_sYW0korjM1lw-223" style="connectable=0;recursiveResize=0;strokeColor=inherit;fillColor=none;align=center;whiteSpace=wrap;html=1;spacing=0;rounded=1;" vertex="1" visible="0" parent="4i83WWW_sYW0korjM1lw-194">
          <mxGeometry x="80" width="150" height="20" as="geometry">
            <mxRectangle width="150" height="20" as="alternateBounds" />
          </mxGeometry>
        </mxCell>
        <mxCell id="4i83WWW_sYW0korjM1lw-198" style="shape=tableRow;horizontal=0;startSize=0;swimlaneHead=0;swimlaneBody=0;top=0;left=0;bottom=0;right=0;dropTarget=0;collapsible=0;recursiveResize=0;expand=0;fontStyle=0;fillColor=none;strokeColor=inherit;spacing=0;rounded=1;" vertex="1" parent="4i83WWW_sYW0korjM1lw-189">
          <mxGeometry y="40" width="230" height="20" as="geometry" />
        </mxCell>
        <mxCell id="4i83WWW_sYW0korjM1lw-199" value="H" style="connectable=0;recursiveResize=0;strokeColor=inherit;fillColor=none;align=center;whiteSpace=wrap;html=1;spacing=0;rounded=1;" vertex="1" parent="4i83WWW_sYW0korjM1lw-198">
          <mxGeometry width="20" height="20" as="geometry">
            <mxRectangle width="20" height="20" as="alternateBounds" />
          </mxGeometry>
        </mxCell>
        <mxCell id="4i83WWW_sYW0korjM1lw-200" value="CAN0" style="connectable=0;recursiveResize=0;strokeColor=inherit;fillColor=none;align=center;whiteSpace=wrap;html=1;spacing=0;rounded=1;rowspan=3;colspan=1;" vertex="1" parent="4i83WWW_sYW0korjM1lw-198">
          <mxGeometry x="20" width="60" height="60" as="geometry">
            <mxRectangle width="60" height="20" as="alternateBounds" />
          </mxGeometry>
        </mxCell>
        <mxCell id="4i83WWW_sYW0korjM1lw-224" style="connectable=0;recursiveResize=0;strokeColor=inherit;fillColor=none;align=center;whiteSpace=wrap;html=1;spacing=0;rounded=1;" vertex="1" visible="0" parent="4i83WWW_sYW0korjM1lw-198">
          <mxGeometry x="80" width="150" height="20" as="geometry">
            <mxRectangle width="150" height="20" as="alternateBounds" />
          </mxGeometry>
        </mxCell>
        <mxCell id="4i83WWW_sYW0korjM1lw-202" style="shape=tableRow;horizontal=0;startSize=0;swimlaneHead=0;swimlaneBody=0;top=0;left=0;bottom=0;right=0;dropTarget=0;collapsible=0;recursiveResize=0;expand=0;fontStyle=0;fillColor=none;strokeColor=inherit;spacing=0;rounded=1;" vertex="1" parent="4i83WWW_sYW0korjM1lw-189">
          <mxGeometry y="60" width="230" height="20" as="geometry" />
        </mxCell>
        <mxCell id="4i83WWW_sYW0korjM1lw-203" value="L" style="connectable=0;recursiveResize=0;strokeColor=inherit;fillColor=none;align=center;whiteSpace=wrap;html=1;spacing=0;rounded=1;" vertex="1" parent="4i83WWW_sYW0korjM1lw-202">
          <mxGeometry width="20" height="20" as="geometry">
            <mxRectangle width="20" height="20" as="alternateBounds" />
          </mxGeometry>
        </mxCell>
        <mxCell id="4i83WWW_sYW0korjM1lw-204" value="" style="connectable=0;recursiveResize=0;strokeColor=inherit;fillColor=none;align=center;whiteSpace=wrap;html=1;fontStyle=1;spacing=0;rounded=1;" vertex="1" visible="0" parent="4i83WWW_sYW0korjM1lw-202">
          <mxGeometry x="20" width="60" height="20" as="geometry">
            <mxRectangle width="60" height="20" as="alternateBounds" />
          </mxGeometry>
        </mxCell>
        <mxCell id="4i83WWW_sYW0korjM1lw-225" style="connectable=0;recursiveResize=0;strokeColor=inherit;fillColor=none;align=center;whiteSpace=wrap;html=1;fontStyle=1;spacing=0;rounded=1;" vertex="1" visible="0" parent="4i83WWW_sYW0korjM1lw-202">
          <mxGeometry x="80" width="150" height="20" as="geometry">
            <mxRectangle width="150" height="20" as="alternateBounds" />
          </mxGeometry>
        </mxCell>
        <mxCell id="4i83WWW_sYW0korjM1lw-206" style="shape=tableRow;horizontal=0;startSize=0;swimlaneHead=0;swimlaneBody=0;top=0;left=0;bottom=0;right=0;dropTarget=0;collapsible=0;recursiveResize=0;expand=0;fontStyle=0;fillColor=none;strokeColor=inherit;spacing=0;rounded=1;" vertex="1" parent="4i83WWW_sYW0korjM1lw-189">
          <mxGeometry y="80" width="230" height="20" as="geometry" />
        </mxCell>
        <mxCell id="4i83WWW_sYW0korjM1lw-207" value="G" style="connectable=0;recursiveResize=0;strokeColor=inherit;fillColor=none;align=center;whiteSpace=wrap;html=1;spacing=0;rounded=1;" vertex="1" parent="4i83WWW_sYW0korjM1lw-206">
          <mxGeometry width="20" height="20" as="geometry">
            <mxRectangle width="20" height="20" as="alternateBounds" />
          </mxGeometry>
        </mxCell>
        <mxCell id="4i83WWW_sYW0korjM1lw-208" style="connectable=0;recursiveResize=0;strokeColor=inherit;fillColor=none;align=center;whiteSpace=wrap;html=1;spacing=0;rounded=1;" vertex="1" visible="0" parent="4i83WWW_sYW0korjM1lw-206">
          <mxGeometry x="20" width="60" height="20" as="geometry">
            <mxRectangle width="60" height="20" as="alternateBounds" />
          </mxGeometry>
        </mxCell>
        <mxCell id="4i83WWW_sYW0korjM1lw-226" value="2-CH RPi CAN HAT" style="connectable=0;recursiveResize=0;strokeColor=inherit;fillColor=none;align=center;whiteSpace=wrap;html=1;spacing=0;rounded=1;" vertex="1" visible="0" parent="4i83WWW_sYW0korjM1lw-206">
          <mxGeometry x="80" width="150" height="20" as="geometry">
            <mxRectangle width="150" height="20" as="alternateBounds" />
          </mxGeometry>
        </mxCell>
        <mxCell id="4i83WWW_sYW0korjM1lw-210" style="shape=tableRow;horizontal=0;startSize=0;swimlaneHead=0;swimlaneBody=0;top=0;left=0;bottom=0;right=0;dropTarget=0;collapsible=0;recursiveResize=0;expand=0;fontStyle=0;fillColor=none;strokeColor=inherit;spacing=0;rounded=1;" vertex="1" parent="4i83WWW_sYW0korjM1lw-189">
          <mxGeometry y="100" width="230" height="20" as="geometry" />
        </mxCell>
        <mxCell id="4i83WWW_sYW0korjM1lw-211" value="H" style="connectable=0;recursiveResize=0;strokeColor=inherit;fillColor=none;align=center;whiteSpace=wrap;html=1;spacing=0;rounded=1;" vertex="1" parent="4i83WWW_sYW0korjM1lw-210">
          <mxGeometry width="20" height="20" as="geometry">
            <mxRectangle width="20" height="20" as="alternateBounds" />
          </mxGeometry>
        </mxCell>
        <mxCell id="4i83WWW_sYW0korjM1lw-212" value="CAN1" style="connectable=0;recursiveResize=0;strokeColor=inherit;fillColor=none;align=center;whiteSpace=wrap;html=1;spacing=0;rounded=1;rowspan=3;colspan=1;" vertex="1" parent="4i83WWW_sYW0korjM1lw-210">
          <mxGeometry x="20" width="60" height="60" as="geometry">
            <mxRectangle width="60" height="20" as="alternateBounds" />
          </mxGeometry>
        </mxCell>
        <mxCell id="4i83WWW_sYW0korjM1lw-227" style="connectable=0;recursiveResize=0;strokeColor=inherit;fillColor=none;align=center;whiteSpace=wrap;html=1;spacing=0;rounded=1;" vertex="1" visible="0" parent="4i83WWW_sYW0korjM1lw-210">
          <mxGeometry x="80" width="150" height="20" as="geometry">
            <mxRectangle width="150" height="20" as="alternateBounds" />
          </mxGeometry>
        </mxCell>
        <mxCell id="4i83WWW_sYW0korjM1lw-218" style="shape=tableRow;horizontal=0;startSize=0;swimlaneHead=0;swimlaneBody=0;top=0;left=0;bottom=0;right=0;dropTarget=0;collapsible=0;recursiveResize=0;expand=0;fontStyle=0;fillColor=none;strokeColor=inherit;spacing=0;rounded=1;" vertex="1" parent="4i83WWW_sYW0korjM1lw-189">
          <mxGeometry y="120" width="230" height="20" as="geometry" />
        </mxCell>
        <mxCell id="4i83WWW_sYW0korjM1lw-219" value="L" style="connectable=0;recursiveResize=0;strokeColor=inherit;fillColor=none;align=center;whiteSpace=wrap;html=1;spacing=0;rounded=1;" vertex="1" parent="4i83WWW_sYW0korjM1lw-218">
          <mxGeometry width="20" height="20" as="geometry">
            <mxRectangle width="20" height="20" as="alternateBounds" />
          </mxGeometry>
        </mxCell>
        <mxCell id="4i83WWW_sYW0korjM1lw-220" style="connectable=0;recursiveResize=0;strokeColor=inherit;fillColor=none;align=center;whiteSpace=wrap;html=1;spacing=0;rounded=1;" vertex="1" visible="0" parent="4i83WWW_sYW0korjM1lw-218">
          <mxGeometry x="20" width="60" height="20" as="geometry">
            <mxRectangle width="60" height="20" as="alternateBounds" />
          </mxGeometry>
        </mxCell>
        <mxCell id="4i83WWW_sYW0korjM1lw-228" style="connectable=0;recursiveResize=0;strokeColor=inherit;fillColor=none;align=center;whiteSpace=wrap;html=1;spacing=0;rounded=1;" vertex="1" visible="0" parent="4i83WWW_sYW0korjM1lw-218">
          <mxGeometry x="80" width="150" height="20" as="geometry">
            <mxRectangle width="150" height="20" as="alternateBounds" />
          </mxGeometry>
        </mxCell>
        <mxCell id="4i83WWW_sYW0korjM1lw-214" style="shape=tableRow;horizontal=0;startSize=0;swimlaneHead=0;swimlaneBody=0;top=0;left=0;bottom=0;right=0;dropTarget=0;collapsible=0;recursiveResize=0;expand=0;fontStyle=0;fillColor=none;strokeColor=inherit;spacing=0;rounded=1;" vertex="1" parent="4i83WWW_sYW0korjM1lw-189">
          <mxGeometry y="140" width="230" height="20" as="geometry" />
        </mxCell>
        <mxCell id="4i83WWW_sYW0korjM1lw-215" value="G" style="connectable=0;recursiveResize=0;strokeColor=inherit;fillColor=none;align=center;whiteSpace=wrap;html=1;spacing=0;rounded=1;" vertex="1" parent="4i83WWW_sYW0korjM1lw-214">
          <mxGeometry width="20" height="20" as="geometry">
            <mxRectangle width="20" height="20" as="alternateBounds" />
          </mxGeometry>
        </mxCell>
        <mxCell id="4i83WWW_sYW0korjM1lw-216" style="connectable=0;recursiveResize=0;strokeColor=inherit;fillColor=none;align=center;whiteSpace=wrap;html=1;spacing=0;rounded=1;" vertex="1" visible="0" parent="4i83WWW_sYW0korjM1lw-214">
          <mxGeometry x="20" width="60" height="20" as="geometry">
            <mxRectangle width="60" height="20" as="alternateBounds" />
          </mxGeometry>
        </mxCell>
        <mxCell id="4i83WWW_sYW0korjM1lw-229" style="connectable=0;recursiveResize=0;strokeColor=inherit;fillColor=none;align=center;whiteSpace=wrap;html=1;spacing=0;rounded=1;" vertex="1" visible="0" parent="4i83WWW_sYW0korjM1lw-214">
          <mxGeometry x="80" width="150" height="20" as="geometry">
            <mxRectangle width="150" height="20" as="alternateBounds" />
          </mxGeometry>
        </mxCell>
      </root>
    </mxGraphModel>
  </diagram>
</mxfile>
